<svg xmlns="http://www.w3.org/2000/svg" xmlns:xlink="http://www.w3.org/1999/xlink">

<symbol id="github" fill-rule="evenodd" clip-rule="evenodd" stroke-linejoin="round" stroke-miterlimit="1.414"><path d="M8 0C3.58 0 0 3.582 0 8c0 3.535 2.292 6.533 5.47 7.59.4.075.547-.172.547-.385 0-.19-.007-.693-.01-1.36-2.226.483-2.695-1.073-2.695-1.073-.364-.924-.89-1.17-.89-1.17-.725-.496.056-.486.056-.486.803.056 1.225.824 1.225.824.714 1.223 1.873.87 2.33.665.072-.517.278-.87.507-1.07-1.777-.2-3.644-.888-3.644-3.953 0-.873.31-1.587.823-2.147-.09-.202-.36-1.015.07-2.117 0 0 .67-.215 2.2.82.64-.178 1.32-.266 2-.27.68.004 1.36.092 2 .27 1.52-1.035 2.19-.82 2.19-.82.43 1.102.16 1.915.08 2.117.51.56.82 1.274.82 2.147 0 3.073-1.87 3.75-3.65 3.947.28.24.54.73.54 1.48 0 1.07-.01 1.93-.01 2.19 0 .21.14.46.55.38C13.71 14.53 16 11.53 16 8c0-4.418-3.582-8-8-8"/></symbol>

<symbol id="linkedin" fill-rule="evenodd" clip-rule="evenodd" stroke-linejoin="round" stroke-miterlimit="1.414"><path d="M13.632 13.635h-2.37V9.922c0-.886-.018-2.025-1.234-2.025-1.235 0-1.424.964-1.424 1.96v3.778h-2.37V6H8.51v1.04h.03c.318-.6 1.092-1.233 2.247-1.233 2.4 0 2.845 1.58 2.845 3.637v4.188zM3.558 4.955c-.762 0-1.376-.617-1.376-1.377 0-.758.614-1.375 1.376-1.375.76 0 1.376.617 1.376 1.375 0 .76-.617 1.377-1.376 1.377zm1.188 8.68H2.37V6h2.376v7.635zM14.816 0H1.18C.528 0 0 .516 0 1.153v13.694C0 15.484.528 16 1.18 16h13.635c.652 0 1.185-.516 1.185-1.153V1.153C16 .516 15.467 0 14.815 0z" fill-rule="nonzero"/></symbol>

<symbol id="rss" fill-rule="evenodd" clip-rule="evenodd" stroke-linejoin="round" stroke-miterlimit="1.414"><path d="M12.8 16C12.8 8.978 7.022 3.2 0 3.2V0c8.777 0 16 7.223 16 16h-3.2zM2.194 11.61c1.21 0 2.195.985 2.195 2.196 0 1.21-.99 2.194-2.2 2.194C.98 16 0 15.017 0 13.806c0-1.21.983-2.195 2.194-2.195zM10.606 16h-3.11c0-4.113-3.383-7.497-7.496-7.497v-3.11c5.818 0 10.606 4.79 10.606 10.607z"/></symbol>

<symbol id="stackoverflow" class="svg-icon" xmlns="http://www.w3.org/2000/svg" fill-rule="evenodd" clip-rule="evenodd" stroke-linejoin="round" stroke-miterlimit="1.414"><path d="M12.658 14.577v-4.27h1.423V16H1.23v-5.693h1.42v4.27h10.006zm-8.583-1.423h7.16V11.73h-7.16v1.424zm.173-3.235l6.987 1.46.3-1.38L4.55 8.54l-.302 1.38zm.906-3.37l6.47 3.02.602-1.3-6.47-3.02-.602 1.29zm1.81-3.19l5.478 4.57.906-1.08L7.87 2.28l-.9 1.078zM10.502 0L9.338.863l4.27 5.735 1.164-.862L10.5 0z"/></symbol>

<symbol id="twitter" fill-rule="evenodd" clip-rule="evenodd" stroke-linejoin="round" stroke-miterlimit="1.414"><path d="M16 3.038c-.59.26-1.22.437-1.885.517.677-.407 1.198-1.05 1.443-1.816-.634.37-1.337.64-2.085.79-.598-.64-1.45-1.04-2.396-1.04-1.812 0-3.282 1.47-3.282 3.28 0 .26.03.51.085.75-2.728-.13-5.147-1.44-6.766-3.42C.83 2.58.67 3.14.67 3.75c0 1.14.58 2.143 1.46 2.732-.538-.017-1.045-.165-1.487-.41v.04c0 1.59 1.13 2.918 2.633 3.22-.276.074-.566.114-.865.114-.21 0-.41-.02-.61-.058.42 1.304 1.63 2.253 3.07 2.28-1.12.88-2.54 1.404-4.07 1.404-.26 0-.52-.015-.78-.045 1.46.93 3.18 1.474 5.04 1.474 6.04 0 9.34-5 9.34-9.33 0-.14 0-.28-.01-.42.64-.46 1.2-1.04 1.64-1.7z" fill-rule="nonzero"/></symbol>

<symbol id="goodreads2" fill-rule="evenodd" clip-rule="evenodd" stroke-linejoin="round" stroke-miterlimit="1.414">
  <path transform = "scale(0.50)" d="M19.525 15.977V.49h-2.059v2.906h-.064c-.211-.455-.481-.891-.842-1.307-.36-.412-.767-.777-1.232-1.094-.466-.314-.962-.561-1.519-.736C13.256.09 12.669 0 12.038 0c-1.21 0-2.3.225-3.246.67-.947.447-1.743 1.057-2.385 1.83-.642.773-1.133 1.676-1.47 2.711-.336 1.037-.506 2.129-.506 3.283 0 1.199.141 2.326.425 3.382.286 1.057.737 1.976 1.368 2.762.631.78 1.412 1.397 2.375 1.833.961.436 2.119.661 3.471.661 1.248 0 2.33-.315 3.262-.946s1.638-1.473 2.119-2.525h.061v2.284c0 2.044-.421 3.607-1.264 4.705-.84 1.081-2.224 1.638-4.146 1.638-.572 0-1.128-.061-1.669-.181-.542-.12-1.036-.315-1.487-.57-.437-.271-.827-.601-1.143-1.038-.316-.435-.526-.961-.632-1.593H5.064c.067.887.315 1.654.737 2.3.424.646.961 1.172 1.602 1.593.641.406 1.367.706 2.172.902.811.194 1.639.3 2.494.3 1.383 0 2.541-.195 3.486-.555.947-.376 1.714-.902 2.301-1.608.601-.708 1.021-1.549 1.293-2.556.27-1.007.42-2.134.42-3.367l-.044.062zm-7.484-.557c-.955 0-1.784-.189-2.479-.571-.697-.38-1.277-.882-1.732-1.503-.467-.621-.797-1.332-1.022-2.139s-.332-1.633-.332-2.484c0-.871.105-1.725.301-2.563.21-.84.54-1.587.992-2.24.451-.652 1.037-1.182 1.728-1.584s1.533-.605 2.51-.605 1.803.209 2.495.621c.676.415 1.247.959 1.683 1.634.436.677.751 1.429.947 2.255.195.826.285 1.656.285 2.482 0 .852-.12 1.678-.345 2.484-.226.807-.572 1.518-1.038 2.139-.465.621-1.021 1.123-1.698 1.503-.676.382-1.458.571-2.359.571h.064z" />
</symbol>

<symbol id="goodreads" fill-rule="evenodd" clip-rule="evenodd" stroke-linejoin="round" stroke-miterlimit="1.414">
  <path transform = "scale(0.55)" d="M22,4v2.237C20.533,4.258,18.39,3,16,3c-4.411,0-8,4.262-8,9.5s3.589,9.5,8,9.5c2.39,0,4.533-1.258,6-3.237V22 c0,2.757-2.691,5-6,5c-2.455,0-4.568-1.236-5.495-3H8.337c0.986,2.887,4.046,5,7.663,5c4.411,0,8-3.141,8-7V4H22z M16,20 c-3.309,0-6-3.364-6-7.5S12.691,5,16,5s6,3.364,6,7.5S19.309,20,16,20z"/>
</symbol>

<symbol id="goodreads3" fill-rule="evenodd" clip-rule="evenodd" stroke-linejoin="round" stroke-miterlimit="1.414">

  <path transform = "scale(0.15)" fill-rule="evenodd" clip-rule="evenodd" fill="#E7E3C7" d="M16.379,0h90.122c9.009,0,16.379,7.371,16.379,16.379v90.122 c0,9.009-7.37,16.38-16.379,16.38H16.379C7.371,122.881,0,115.51,0,106.501V16.379C0,7.371,7.371,0,16.379,0L16.379,0z"></path>

  <path transform = "scale(0.15)" fill="#6C3D0D" d="M61.661,25.795c-6.29,0-11.108,2.514-14.427,6.549c-3.796,4.615-5.716,11.237-5.716,18.447 c0,7.221,1.859,13.573,5.42,17.972c3.203,3.956,7.851,6.349,13.824,6.349c6.332,0,11.27-2.457,14.685-6.444 c3.811-4.448,5.803-10.819,5.803-17.876c0-0.064,0.003-0.129,0.009-0.192l0.001-0.093h-0.009c0-6.404-1.729-12.644-5.091-17.262 c-3.248-4.462-8.061-7.411-14.34-7.456l-0.159-0.001V25.795L61.661,25.795z M81.355,71.712c-1.327,1.746-2.896,3.279-4.634,4.585 c-4.561,3.427-10.285,5.278-15.833,5.278c-8.188,0-14.444-3.276-18.772-8.521c-4.7-5.695-7.043-13.695-7.043-22.263 c0-8.867,2.463-16.973,7.262-22.739c4.495-5.401,10.972-8.729,19.326-8.729c5.821,0,11.037,1.996,15.135,5.294 c1.736,1.398,3.27,3.029,4.56,4.841v-8.275h6.451v58.564c0,8.561-2.335,14.968-6.635,19.326 c-4.499,4.563-11.032,6.776-19.187,6.776c-6.623,0-12.788-1.722-17.215-5.58c-3.928-3.422-6.427-8.451-6.597-15.348v-0.039h6.451 l-0.001,0.073c0.215,4.853,1.93,8.297,4.589,10.573c3.133,2.682,7.661,3.851,12.664,3.851c6.41,0,11.369-1.577,14.631-4.854 c3.163-3.178,4.849-8.063,4.849-14.778V71.712L81.355,71.712z"></path>

</symbol>

</svg>
